<svg width="30" height="31" viewBox="0 0 30 31" fill="none" xmlns="http://www.w3.org/2000/svg">
<g clip-path="url(#clip0_305_4)">
<path d="M15 30.5291C6.97266 30.5291 0.46875 24.0251 0.46875 15.9978C0.46875 7.97046 6.97266 1.46655 15 1.46655C23.0273 1.46655 29.5312 7.97046 29.5312 15.9978C29.5312 24.0251 23.0273 30.5291 15 30.5291ZM16.6934 22.115L12.2695 17.8728H22.9688C23.748 17.8728 24.375 17.2458 24.375 16.4666V15.5291C24.375 14.7498 23.748 14.1228 22.9688 14.1228H12.2695L16.6934 9.88062C17.2617 9.33569 17.2734 8.42749 16.7168 7.87085L16.0723 7.23218C15.5215 6.6814 14.6309 6.6814 14.0859 7.23218L6.31055 15.0017C5.75977 15.5525 5.75977 16.4431 6.31055 16.988L14.0859 24.7634C14.6367 25.3142 15.5273 25.3142 16.0723 24.7634L16.7168 24.1248C17.2734 23.5681 17.2617 22.6599 16.6934 22.115Z" fill="white"/>
</g>
<defs>
<clipPath id="clip0_305_4">
<rect width="30" height="30" fill="white" transform="translate(0 0.997803)"/>
</clipPath>
</defs>
</svg>
