<svg width="30" height="31" viewBox="0 0 30 31" fill="none" xmlns="http://www.w3.org/2000/svg">
<g clip-path="url(#clip0_305_2)">
<path d="M15 1.46655C23.0273 1.46655 29.5312 7.97046 29.5312 15.9978C29.5312 24.0251 23.0273 30.5291 15 30.5291C6.97266 30.5291 0.46875 24.0251 0.46875 15.9978C0.46875 7.97046 6.97266 1.46655 15 1.46655ZM13.3066 9.88062L17.7305 14.1228H7.03125C6.25195 14.1228 5.625 14.7498 5.625 15.5291V16.4666C5.625 17.2458 6.25195 17.8728 7.03125 17.8728H17.7305L13.3066 22.115C12.7383 22.6599 12.7266 23.5681 13.2832 24.1248L13.9277 24.7634C14.4785 25.3142 15.3691 25.3142 15.9141 24.7634L23.6895 16.9939C24.2402 16.4431 24.2402 15.5525 23.6895 15.0076L15.9141 7.22632C15.3633 6.67554 14.4727 6.67554 13.9277 7.22632L13.2832 7.86499C12.7266 8.42749 12.7383 9.33569 13.3066 9.88062Z" fill="white"/>
</g>
<defs>
<clipPath id="clip0_305_2">
<rect width="30" height="30" fill="white" transform="translate(0 0.997803)"/>
</clipPath>
</defs>
</svg>
